<?xml version="1.0" encoding="UTF-8" standalone="no"?>
<svg
   xmlns:dc="http://purl.org/dc/elements/1.1/"
   xmlns:cc="http://creativecommons.org/ns#"
   xmlns:rdf="http://www.w3.org/1999/02/22-rdf-syntax-ns#"
   xmlns:svg="http://www.w3.org/2000/svg"
   xmlns="http://www.w3.org/2000/svg"
  viewBox="0 0 499.30667 485.61334"
   xml:space="preserve"
   id="svg2"
   version="1.1"><metadata
     id="metadata8"><rdf:RDF><cc:Work
         rdf:about=""><dc:format>image/svg+xml</dc:format><dc:type
           rdf:resource="http://purl.org/dc/dcmitype/StillImage" /></cc:Work></rdf:RDF></metadata><defs
     id="defs6" /><g
     transform="matrix(1.3333333,0,0,-1.3333333,0,485.61333)"
     id="g10"><g
       transform="scale(0.1)"
       id="g12">
         <path
         id="path32"
         style="fill:#202020;fill-opacity:1;fill-rule:evenodd;stroke:none"
         d="m 3230.98,3276.98 c -54.38,-8.33 -112.1,1.99 -155.09,38.07 -43.51,36.5 -67.04,102.81 -43.99,157.08 11.43,26.92 30.68,48.54 57.04,61.66 26.99,13.39 59.42,16.53 87.72,5.25 23.13,-9.61 41.19,-27.41 50.77,-50.72 11.58,-28.18 10.16,-62.68 -8.51,-87.54 -17.37,-23.12 -49,-33.3 -75.83,-20.49 -11.28,5.38 -23.2,16.8 -21.24,30.51 0.37,2.57 1.44,5.79 3.97,7.01 2.55,1.23 5.46,-1.09 7.52,-2.32 6.53,-3.89 13.46,-5.54 21.05,-4.39 12.96,1.95 21.78,9.82 23.23,23.08 1.45,13.18 -4.52,29.32 -16.09,36.57 -21.41,13.43 -50.8,-6.57 -57.27,-27.69 -7.99,-29.67 8.05,-59.47 32.34,-76.15 23.51,-16.14 52.32,-21.15 80.32,-20.73 61.44,0.91 118.34,32.6 173.52,55.95 28.76,12.17 58.05,22.82 88.68,29.18 30.16,6.26 61.86,6.57 92.21,1.42 59.24,-10.03 117.32,-43.37 143.13,-99.61 24.93,-54.35 19.53,-127.96 -28.72,-168.02 43.29,40.21 46.13,109.25 19.49,159.42 -28.91,54.43 -91.45,80.19 -150.89,79.57 -60.97,-0.63 -113.54,-29.68 -164.78,-59.68 -49.83,-29.18 -100.8,-57.97 -158.58,-67.43" /><path
         id="path34"
         style="fill:#202020;fill-opacity:1;fill-rule:evenodd;stroke:none"
         d="m 3235.05,3191.62 c -102.85,-56.42 -243.69,-92.97 -348.22,-20.04 -30.84,21.52 -55.15,53.55 -67.1,89.24 -5.94,17.77 -8.88,36.71 -7.29,55.43 0.69,8.2 2.22,16.38 4.97,24.14 1.33,3.75 6.55,18.36 12.1,16.69 4.12,-1.24 3.72,-12.11 4.01,-15.33 0.59,-6.6 1.29,-13.18 2.4,-19.72 2.42,-14.23 6.71,-28.04 12.9,-41.08 12.67,-26.71 32.73,-49.97 57.33,-66.36 47.31,-31.53 108.5,-35.24 163.24,-27.25 63.53,9.26 124.48,34.32 181.13,63.77 55.26,28.72 106.84,63.96 163.22,90.57 56.55,26.69 123.24,42.3 184.71,24.25 58.49,-17.19 107.78,-65.71 105.95,-129.82 -0.68,-23.75 -8.73,-47.03 -24.69,-64.84 20.24,24.51 25.73,57.99 18.65,88.54 -6.63,28.64 -24.23,52.74 -48.2,69.49 -52.97,37.2 -121.84,31.95 -179.21,8.73 -42.37,-17.15 -80.24,-43.28 -117.38,-69.55 -38.5,-27.22 -77.12,-54.15 -118.52,-76.86 -30.05,-16.48 30.97,16.99 0,0" /><path
         id="path36"
         style="fill:#202020;fill-opacity:1;fill-rule:evenodd;stroke:none"
         d="m 2839.78,3360.59 c -13.81,43.8 -16.26,95.07 5.13,137.11 21.48,42.23 70.37,68.82 116.59,51.16 26.37,-10.07 48.61,-33.17 53.11,-61.64 4.66,-29.43 -12.11,-58.18 -37.4,-72.63 -12.73,-7.26 -27.62,-11.05 -42.28,-9.58 -10.35,1.04 -28.85,5.58 -32.08,17.47 -1.59,5.86 7.87,4.59 11.07,4.71 6.91,0.25 13.61,0.79 20.33,2.65 14.03,3.86 26.93,13.43 33.68,26.47 6.89,13.3 4,27.19 -7.39,36.82 -9.57,8.1 -22.08,11.78 -34.41,9.36 -19.81,-3.88 -33.07,-22.22 -39.16,-40.27 -15.27,-45.31 -6.34,-99.65 17.5,-140.22 31.37,-53.41 90.74,-78.14 150.49,-82.68 61.39,-4.66 122.47,7.18 180.43,26.88 22.55,7.67 44.67,16.55 66.52,26 -56.24,-27.85 -114.7,-52.41 -176.5,-64.73 -60.3,-12.01 -126.62,-13.69 -183.41,12.99 -50.02,23.5 -85.3,68.05 -102.22,120.13 -2.16,6.84 9.13,-28.11 0,0" /><path
         id="path38"
         style="fill:#202020;fill-opacity:1;fill-rule:evenodd;stroke:none"
         d="m 3514.94,3294.38 c -28.59,-9.59 -56.22,-24.93 -73.2,-50.7 -9.75,-14.79 -14.38,-32.03 -12.93,-49.72 0.71,-8.6 2.8,-16.98 5.44,-25.18 1.49,-4.62 6.07,-13.23 2.81,-17.96 -2.97,-4.26 -10.32,-1.86 -14.09,-0.34 -6.23,2.51 -11.72,6.89 -16.35,11.7 -9.34,9.73 -15.65,22.16 -18.99,35.17 -7.54,29.38 0.38,60.33 17.71,84.75 33.18,46.73 90.46,61.75 145.22,60.59 44.49,-0.94 93.52,-13.99 118.91,-53.74 22.63,-35.44 13.77,-78.77 5.15,-117.12 5.04,39.15 9.25,87.35 -25.21,115.09 -36.84,29.66 -92.91,21.44 -134.47,7.46 -12.09,-4.06 12.45,4.19 0,0" /><path
         id="path40"
         style="fill:#202020;fill-opacity:1;fill-rule:evenodd;stroke:none"
         d="m 3561.78,3260.23 c -19.46,-6.52 -38.39,-17.8 -49.62,-35.43 -5.62,-8.82 -8.34,-19.57 -8.46,-29.96 -0.06,-5.12 0.55,-10.26 1.61,-15.27 0.53,-2.48 3.04,-8.8 0.68,-11 -3.73,-3.43 -11.63,5.69 -13.36,8.01 -4.24,5.71 -6.97,12.44 -8.37,19.39 -2.73,13.58 -0.61,28.13 5.55,40.51 13,26.61 41.66,42.69 70.12,47 27.94,4.22 58.18,-1.12 80.53,-19.18 22.3,-18.02 35.09,-49.78 26.19,-77.85 -0.59,-1.86 -1.27,-3.69 -2.05,-5.48 8.88,25.89 -2.83,55.73 -24.81,71.22 -22.53,15.87 -52.55,16.42 -78.01,8.04 -14.8,-4.95 15.3,5.04 0,0" />
       </g></g></svg>