<?xml version="1.0" encoding="UTF-8" standalone="no"?>
<svg
   xmlns:dc="http://purl.org/dc/elements/1.1/"
   xmlns:cc="http://creativecommons.org/ns#"
   xmlns:rdf="http://www.w3.org/1999/02/22-rdf-syntax-ns#"
   xmlns:svg="http://www.w3.org/2000/svg"
   xmlns="http://www.w3.org/2000/svg"
   viewBox="0 0 499.30667 485.61334"
   height="485.61334"
   width="499.30667"
   xml:space="preserve"
   id="svg2"
   version="1.1"><metadata
     id="metadata8"><rdf:RDF><cc:Work
         rdf:about=""><dc:format>image/svg+xml</dc:format><dc:type
           rdf:resource="http://purl.org/dc/dcmitype/StillImage" /></cc:Work></rdf:RDF></metadata><defs
     id="defs6" /><g
     transform="matrix(1.3333333,0,0,-1.3333333,0,485.61333)"
     id="g10"><g
       transform="scale(0.1)"
       id="g12"><path
         id="path14"
         style="fill:#000000;fill-opacity:1;fill-rule:nonzero;stroke:none"
         d="m 3358.96,65.5586 c 50.51,-45.2969 122.25,-17.4297 163.78,25.8828 25.72,26.8206 42.86,66.6876 81.82,76.5466 40.12,10.141 83.88,-20.027 79.05,-63.558 -1.68,-11.5511 -6.55,-21.8206 -14.04,-30.7191 -21.39,-22.4414 -58.95,-21.5898 -78.47,3.0586 13.2,-21.4882 42.28,-30.1601 65.6,-21.3476 27.44,10.3594 43.14,41.1679 38.92,69.5981 -4.08,27.492 -25.76,50.839 -51.99,59.062 -29.01,9.09 -61.32,0.699 -83.92,-19.133 -20.79,-17.48 -34.15,-42.57 -52.93,-62.051 -13.65,-14.148 -28.49,-25.1363 -45.92,-34.0191 -43.98,-20.3476 -112.81,-7.418 -116.1,51.6521 0.13,33.938 33.12,64.61 67.69,50.801 -16.65,9.09 -36.97,5.816 -52.31,-4.531 -16.4,-11.071 -23.83,-27.36 -25.16,-46.469 -0.4,-20.5703 9.43,-40.6015 23.98,-54.7734 0.98,-0.8789 -0.94,0.9219 0,0" /></g></g></svg>